<?xml version="1.0" encoding="UTF-8" standalone="no"?>
<svg
   width="434"
   height="365"
   viewBox="0 0 434 365"
   fill="none"
   version="1.1"
   id="svg4"
   sodipodi:docname="bg2.svg"
   inkscape:version="1.1 (c68e22c387, 2021-05-23)"
   xmlns:inkscape="http://www.inkscape.org/namespaces/inkscape"
   xmlns:sodipodi="http://sodipodi.sourceforge.net/DTD/sodipodi-0.dtd"
   xmlns="http://www.w3.org/2000/svg"
   xmlns:svg="http://www.w3.org/2000/svg">
  <defs
     id="defs8" />
  <sodipodi:namedview
     id="namedview6"
     pagecolor="#ffffff"
     bordercolor="#666666"
     borderopacity="1.0"
     inkscape:pageshadow="2"
     inkscape:pageopacity="0.0"
     inkscape:pagecheckerboard="0"
     showgrid="false"
     inkscape:zoom="0.65479452"
     inkscape:cx="644.47699"
     inkscape:cy="85.523013"
     inkscape:window-width="1335"
     inkscape:window-height="728"
     inkscape:window-x="-2"
     inkscape:window-y="6"
     inkscape:window-maximized="0"
     inkscape:current-layer="svg4" />
  <g
     id="g24">
    <path
       opacity="0.1"
       d="M44.3944 41.8842C48.3681 17.727 69.2494 0 93.7313 0H383.284C410.898 0 433.284 22.3858 433.284 50V314.748C433.284 342.362 410.898 364.748 383.284 364.748H50.181C19.3268 364.748 -4.16407 337.077 0.844055 306.632L44.3944 41.8842Z"
       fill="#9C69E2"
       id="path2" />
    <g
       style="fill:none"
       id="g19"
       transform="translate(207.67145,196.01261)">
      <path
         d="M 11.3727,66.229 C -16.6732,33.8186 16.4425,2.52328 74.7278,1.67904 190.606,9.4591 216.755,114.018 207.997,137.46 199.24,160.903 173.163,161.543 134.526,113.787 95.889,66.0307 46.43,106.742 11.3727,66.229 Z"
         stroke="#ffffff"
         stroke-width="1.5"
         id="path10" />
    </g>
  </g>
</svg>
