<?xml version="1.0" encoding="UTF-8" standalone="no"?>
<svg
   width="434"
   height="358"
   viewBox="0 0 434 358"
   fill="none"
   version="1.1"
   id="svg4"
   sodipodi:docname="bg4.svg"
   inkscape:version="1.1 (c68e22c387, 2021-05-23)"
   xmlns:inkscape="http://www.inkscape.org/namespaces/inkscape"
   xmlns:sodipodi="http://sodipodi.sourceforge.net/DTD/sodipodi-0.dtd"
   xmlns="http://www.w3.org/2000/svg"
   xmlns:svg="http://www.w3.org/2000/svg">
  <defs
     id="defs8" />
  <sodipodi:namedview
     id="namedview6"
     pagecolor="#ffffff"
     bordercolor="#666666"
     borderopacity="1.0"
     inkscape:pageshadow="2"
     inkscape:pageopacity="0.0"
     inkscape:pagecheckerboard="0"
     showgrid="false"
     inkscape:zoom="1.3351955"
     inkscape:cx="217.19665"
     inkscape:cy="179"
     inkscape:window-width="1335"
     inkscape:window-height="728"
     inkscape:window-x="55"
     inkscape:window-y="11"
     inkscape:window-maximized="0"
     inkscape:current-layer="svg4" />
  <g
     id="g37">
    <path
       opacity="0.1"
       d="M44.2894 41.7355C48.3267 17.6466 69.1768 0.00012207 93.6017 0.00012207H383.284C410.898 0.00012207 433.284 22.3859 433.284 50.0001V308C433.284 335.614 410.898 358 383.284 358H50.3614C19.4461 358 -4.06087 330.226 1.0492 299.736L44.2894 41.7355Z"
       fill="#2D9CDB"
       id="path2" />
    <g
       style="fill:none"
       id="g19"
       transform="translate(45.273154,12.445913)">
      <path
         d="M 58.7256,226.711 C -1.80858,238.917 -16.4329,174.793 24.9576,100.69 118.954,-39.8782 267.406,1.86394 290.045,29.6597 c 22.64,27.7958 4.446,61.1371 -82.793,75.7333 -87.238,14.597 -72.859,106.059 -148.5264,121.318 z"
         stroke="#ffffff"
         stroke-width="1.5"
         id="path10" />
    </g>
    <g
       style="fill:none"
       id="g30"
       transform="rotate(-90,341.09371,-12.449997)">
      <ellipse
         cx="32.8069"
         cy="25.427"
         rx="34.027401"
         ry="20.1071"
         transform="rotate(150,32.8069,25.427)"
         stroke="#ffffff"
         stroke-width="1.5"
         id="ellipse21" />
    </g>
  </g>
</svg>
